<?xml version="1.0" encoding="UTF-8" standalone="no"?>
<svg
   xmlns:dc="http://purl.org/dc/elements/1.1/"
   xmlns:cc="http://creativecommons.org/ns#"
   xmlns:rdf="http://www.w3.org/1999/02/22-rdf-syntax-ns#"
   xmlns:svg="http://www.w3.org/2000/svg"
   xmlns="http://www.w3.org/2000/svg"
   xmlns:sodipodi="http://sodipodi.sourceforge.net/DTD/sodipodi-0.dtd"
   xmlns:inkscape="http://www.inkscape.org/namespaces/inkscape"
   version="1.1"
   id="Layer_1"
   x="0px"
   y="0px"
   width="1000"
   height="179.13602"
   viewBox="0 0 1000 179.13602"
   enable-background="new 0 0 1000 518.941"
   xml:space="preserve"
   sodipodi:docname="CBS_News Radio_2021.svg"
   inkscape:version="1.0.2 (e86c870879, 2021-01-15)"><metadata
   id="metadata31"><rdf:RDF><cc:Work
       rdf:about=""><dc:format>image/svg+xml</dc:format><dc:type
         rdf:resource="http://purl.org/dc/dcmitype/StillImage" /><dc:title></dc:title></cc:Work></rdf:RDF></metadata><defs
   id="defs29">
	
	
	
	
	
	
	
	
	
	
	
</defs><sodipodi:namedview
   pagecolor="#ffffff"
   bordercolor="#666666"
   borderopacity="1"
   objecttolerance="10"
   gridtolerance="10"
   guidetolerance="10"
   inkscape:pageopacity="0"
   inkscape:pageshadow="2"
   inkscape:window-width="1366"
   inkscape:window-height="705"
   id="namedview27"
   showgrid="false"
   inkscape:zoom="0.5"
   inkscape:cx="536.08768"
   inkscape:cy="106.0632"
   inkscape:window-x="-8"
   inkscape:window-y="-8"
   inkscape:window-maximized="1"
   inkscape:current-layer="Layer_1"
   inkscape:document-rotation="0" />

<g
   id="g912"><path
     id="path848"
     style="fill:#000000;stroke-width:0.094646"
     d="M 47.327055,0.50136976 C 21.187443,0.50136976 0,21.691608 0,47.823933 c 0,26.139613 21.187447,47.323849 47.327055,47.323849 26.124177,0 47.31935,-21.184236 47.31935,-47.323849 0,-26.132325 -21.195173,-47.32256324 -47.31935,-47.32256324 z m 0,19.10680224 c 20.643592,0 37.278777,12.568822 44.448613,28.215761 C 84.605832,63.469061 67.970647,76.044828 47.327055,76.044828 26.674946,76.044828 10.030604,63.469061 2.8572564,47.823933 10.030697,32.177096 26.674946,19.608172 47.327055,19.608172 Z m 0,3.136438 c -13.855984,4.9e-5 -25.087669,11.232474 -25.087669,25.079323 0,13.850635 11.227084,25.075473 25.087669,25.075473 13.851397,0 25.076751,-11.224924 25.076751,-25.075473 0,-13.846849 -11.220763,-25.079376 -25.076751,-25.079323 z"
     sodipodi:nodetypes="sssssscscszsssz" /><path
     d="m 174.06688,63.011764 c -1.71194,2.323343 -3.79073,4.279853 -6.23636,6.114072 -4.27986,3.057035 -10.27164,6.114086 -18.21995,6.114086 -15.2852,0 -27.51334,-12.228158 -27.51334,-27.513351 0,-15.285198 12.22814,-27.513352 27.51334,-27.513352 7.70374,0 13.57324,3.057043 17.60855,6.114082 2.32334,1.834226 4.40213,3.790727 6.23636,6.114072 l 12.22814,-12.228154 c -2.56791,-3.179309 -5.50267,-5.991787 -9.04883,-8.559705 -5.99179,-4.2798484 -15.16291,-8.5597057 -27.02422,-8.5597057 -26.41281,0 -46.46698,20.1764537 -46.46698,44.6327627 0,24.4563 20.05417,44.632763 46.46698,44.632763 12.22815,0 21.27698,-4.279857 27.51335,-8.55971 3.54616,-2.567914 6.6032,-5.38039 9.17111,-8.559702 z"
     style="font-style:normal;font-variant:normal;font-weight:bold;font-stretch:normal;font-size:145.923px;font-family:'TT Norms Pro';-inkscape-font-specification:'TT Norms Pro Bold';letter-spacing:-6.94149px;fill:#000000;stroke-width:3.2095"
     id="path903" /><path
     d="m 193.1333,90.525111 h 38.5187 c 18.21994,0 29.34757,-11.127624 29.34757,-24.456313 0,-8.315141 -4.03531,-13.328685 -7.94831,-16.630288 -2.32335,-1.834216 -5.01354,-3.301603 -7.9483,-4.157572 2.07878,-0.85597 4.03529,-2.201062 5.74723,-3.790723 2.93476,-2.81247 5.86951,-7.092333 5.86951,-13.940106 0,-12.228145 -10.39392,-22.6220763 -27.51334,-22.6220763 H 193.1333 Z m 18.34224,-15.896607 v -20.78786 h 18.95364 c 7.33689,0 11.61674,4.157572 11.61674,10.393938 0,6.236354 -4.27985,10.393922 -11.61674,10.393922 z m 0,-36.684457 v -17.11941 h 16.508 c 6.23636,0 9.78253,3.668443 9.78253,8.559707 0,4.891254 -3.54617,8.559703 -9.78253,8.559703 z"
     style="font-style:normal;font-variant:normal;font-weight:bold;font-stretch:normal;font-size:145.923px;font-family:'TT Norms Pro';-inkscape-font-specification:'TT Norms Pro Bold';letter-spacing:-6.94149px;fill:#000000;stroke-width:3.2095"
     id="path905" /><path
     d="m 263.19403,78.908361 c 2.20106,2.567911 4.89125,4.768973 8.19285,6.725483 5.50267,3.423887 13.69553,6.72549 24.82315,6.72549 20.17645,0 32.40461,-12.228155 32.40461,-26.290536 0,-29.83669 -42.79854,-23.355768 -42.79854,-37.907271 0,-4.891265 3.54617,-8.559707 12.83956,-8.559707 4.89127,0 8.80428,1.834217 11.61674,3.668442 1.58966,1.100538 2.93477,2.323355 4.27987,3.668448 l 12.22814,-12.228154 c -2.07878,-2.078787 -4.40213,-4.035288 -7.21461,-5.7472274 -4.76897,-2.9347563 -12.10586,-5.8695203 -21.52154,-5.8695203 -19.56505,0 -31.1818,11.6167477 -31.1818,25.0677187 0,29.836689 42.79854,23.355774 42.79854,37.907271 0,5.502675 -4.27985,9.782522 -14.06238,9.782522 -6.48092,0 -11.49446,-2.201062 -14.91834,-4.524418 -2.07879,-1.345093 -3.79073,-2.934757 -5.2581,-4.646696 z"
     style="font-style:normal;font-variant:normal;font-weight:bold;font-stretch:normal;font-size:145.923px;font-family:'TT Norms Pro';-inkscape-font-specification:'TT Norms Pro Bold';letter-spacing:-6.94149px;fill:#000000;stroke-width:3.2095"
     id="path907" /><path
     d="M 7.3993208e-6,177.31051 H 17.23417 v -49.97905 l 39.064082,49.97905 H 71.80899 V 96.884455 H 54.574835 V 146.86351 L 15.510747,96.884455 H 7.3993208e-6 Z"
     style="font-style:normal;font-variant:normal;font-weight:bold;font-stretch:normal;font-size:172.267px;font-family:'TT Norms Pro';-inkscape-font-specification:'TT Norms Pro Bold';letter-spacing:-8.19465px;fill:#000000;stroke-width:3.0156"
     id="path872" /><path
     d="M 83.652195,177.31051 H 144.54622 V 161.2253 h -43.65987 v -17.23416 h 33.31937 v -15.51073 h -33.31937 v -15.51075 h 42.51092 V 96.884455 H 83.652195 Z"
     style="font-style:normal;font-variant:normal;font-weight:bold;font-stretch:normal;font-size:172.267px;font-family:'TT Norms Pro';-inkscape-font-specification:'TT Norms Pro Bold';letter-spacing:-8.19465px;fill:#000000;stroke-width:3.0156"
     id="path874" /><path
     d="m 175.13274,177.31051 h 16.65967 l 16.31498,-52.27694 h 0.68937 l 16.31498,52.27694 h 16.65967 L 268.19717,96.884455 H 250.3885 L 233.72883,150.88481 H 233.1544 L 216.49466,96.884455 h -16.08517 l -16.65967,54.000355 h -0.5745 L 166.51565,96.884455 H 148.707 Z"
     style="font-style:normal;font-variant:normal;font-weight:bold;font-stretch:normal;font-size:172.267px;font-family:'TT Norms Pro';-inkscape-font-specification:'TT Norms Pro Bold';letter-spacing:-8.19465px;fill:#000000;stroke-width:3.0156"
     id="path876" /><path
     d="m 267.14624,166.39555 c 2.06812,2.41278 4.5958,4.48087 7.6979,6.31918 5.17029,3.21705 12.86819,6.3192 23.32358,6.3192 18.9576,0 30.44703,-11.48944 30.44703,-24.7023 0,-28.03422 -40.21305,-21.94482 -40.21305,-35.61725 0,-4.59577 3.33192,-8.0426 12.06395,-8.0426 4.59572,0 8.27239,1.72342 10.91494,3.44683 1.49362,1.03405 2.75742,2.18299 4.02129,3.44683 L 326.89133,106.076 c -1.95324,-1.95321 -4.13623,-3.79151 -6.77878,-5.40003 -4.48085,-2.757463 -11.37451,-5.514926 -20.22141,-5.514926 -18.38309,0 -29.29804,10.914956 -29.29804,23.553336 0,28.03423 40.21299,21.94483 40.21299,35.61725 0,5.17026 -4.02129,9.19156 -13.2128,9.19156 -6.08941,0 -10.80008,-2.0681 -14.01713,-4.2511 -1.95324,-1.26383 -3.56173,-2.75746 -4.94047,-4.36597 z"
     style="font-style:normal;font-variant:normal;font-weight:bold;font-stretch:normal;font-size:172.267px;font-family:'TT Norms Pro';-inkscape-font-specification:'TT Norms Pro Bold';letter-spacing:-8.19465px;fill:#000000;stroke-width:3.0156"
     id="path878" /><path
     id="rect887"
     style="opacity:1;fill:#000000;fill-rule:evenodd;stroke-width:27.8448;stroke-linecap:round;paint-order:stroke fill markers"
     d="M 342.11246,0 V 179.13602 H 999.99999 V 0 Z m 568.09279,9.3721464 c 45.21454,0 81.3862,36.1716596 81.3862,81.3861946 0,45.214529 -36.17166,81.386199 -81.3862,81.386199 -45.21446,0 -81.38619,-36.17167 -81.38619,-81.386199 0,-45.214535 36.17173,-81.3861946 81.38619,-81.3861946 z M 354.92269,11.63358 h 63.29863 c 28.25908,0 48.60616,20.345744 48.60616,47.474466 0,18.085813 -8.36378,29.162953 -16.5024,36.171207 -4.74752,3.843238 -10.17368,7.009127 -16.27764,9.043777 l 37.30095,65.56007 h -19.21534 l -35.04147,-63.30058 h -45.21499 v 63.30058 h -16.9539 z m 191.62961,0 h 15.82612 l 65.56007,158.24952 h -18.08561 l -18.0856,-44.08329 h -74.60385 l -18.0856,44.08329 h -18.08561 z m 92.78326,0 h 49.7359 c 46.34488,0 82.51594,36.397027 82.51594,79.124761 0,42.727729 -36.17106,79.124759 -82.51594,79.124759 h -49.7359 z m 152.34674,0 h 16.95587 V 169.8831 H 791.6823 Z m 118.52295,13.562736 c -36.17158,0 -64.43033,28.260039 -64.43033,65.562025 0,37.301989 28.25875,65.560069 64.43033,65.560069 36.17165,0 64.43229,-28.25808 64.43229,-65.560069 0,-37.301986 -28.26064,-65.562025 -64.43229,-65.562025 z M 371.87659,27.45775 v 63.300591 h 46.34473 c 19.21618,0 31.65029,-12.434111 31.65029,-31.650295 0,-19.216172 -12.43411,-31.650296 -31.65029,-31.650296 z m 284.41484,0 v 126.60118 h 32.78003 c 37.30198,0 65.56008,-28.25933 65.56008,-63.300589 0,-35.041258 -28.2581,-63.300591 -65.56008,-63.300591 z m -101.8251,7.912085 -30.52055,74.603855 h 61.03916 z" /></g></svg>
